# xmcd CD database file generated by Grip 3.2.0
# 
# Track frame offsets:
#       150
#       19202
#       49040
#       67810
#       90712
#       101565
#       117012
#       153472
#       166197
# 
# Disc length: 2430 seconds
# 
# Revision: 2
# Processed by: cddbd v1.5.2PL0 Copyright (c) Steve Scherf et al.
# Submitted via: Grip 3.2.0
# 
DISCID=65097c09
DTITLE=Sabbath Assembly - Restored To One
DYEAR=2010
DGENRE=Other
TTITLE0=Glory to the Gods in the Highest
TTITLE1=Hymn of Consecration
TTITLE2=And the  Phoenix is Reborn
TTITLE3=The Saints Shall Inherit the Earth
TTITLE4=The Power That is Love
TTITLE5=Glory Hallelujah
TTITLE6=Judge of Mankind
TTITLE7=We Give Our Lives
TTITLE8=The Time of Abaddon
EXTD=
EXTT0=
EXTT1=
EXTT2=
EXTT3=
EXTT4=
EXTT5=
EXTT6=
EXTT7=
EXTT8=
PLAYORDER=
